<?xml version="1.0" encoding="UTF-8"?>
<svg width="25px" height="24px" viewBox="0 0 25 24" version="1.1" xmlns="http://www.w3.org/2000/svg" xmlns:xlink="http://www.w3.org/1999/xlink">
    <title>apps/128/dde-calendar</title>
    <defs>
        <filter x="-10.3%" y="-5.1%" width="120.5%" height="120.5%" filterUnits="objectBoundingBox" id="filter-1">
            <feOffset dx="0" dy="1" in="SourceAlpha" result="shadowOffsetOuter1"></feOffset>
            <feGaussianBlur stdDeviation="0.5" in="shadowOffsetOuter1" result="shadowBlurOuter1"></feGaussianBlur>
            <feColorMatrix values="0 0 0 0 0   0 0 0 0 0   0 0 0 0 0  0 0 0 0.20036604 0" type="matrix" in="shadowBlurOuter1" result="shadowMatrixOuter1"></feColorMatrix>
            <feMerge>
                <feMergeNode in="shadowMatrixOuter1"></feMergeNode>
                <feMergeNode in="SourceGraphic"></feMergeNode>
            </feMerge>
        </filter>
        <linearGradient x1="50%" y1="0%" x2="50%" y2="100%" id="linearGradient-2">
            <stop stop-color="#FF6A6F" offset="0%"></stop>
            <stop stop-color="#E5484B" offset="100%"></stop>
        </linearGradient>
        <linearGradient x1="50%" y1="0%" x2="50%" y2="99.1887019%" id="linearGradient-3">
            <stop stop-color="#FFFFFF" stop-opacity="0.3" offset="0%"></stop>
            <stop stop-color="#C80000" stop-opacity="0.4" offset="100%"></stop>
        </linearGradient>
    </defs>
    <g id="apps/128/dde-calendar" stroke="none" fill="none" transform="translate(0.25, 0)">
        <g id="编组-2" filter="url(#filter-1)" stroke-width="1" fill-rule="evenodd" transform="translate(2.25, 2.25)">
            <g id="编组">
                <path d="M19.5,4.875 L19.5,16.5 C19.5,18.1568542 18.1568542,19.5 16.5,19.5 L3,19.5 C1.34314575,19.5 6.82121026e-13,18.1568542 6.82121026e-13,16.5 L6.82121026e-13,4.875 C6.82121026e-13,3.21814575 1.34314575,1.875 3,1.875 L16.5,1.875 C18.1568542,1.875 19.5,3.21814575 19.5,4.875 Z" id="Rectangle-245" fill-opacity="0.8" fill="#FFFFFF" opacity="0.5"></path>
                <path d="M19.5,4.3125 L19.5,15.9375 C19.5,17.5943542 18.1568542,18.9375 16.5,18.9375 L3,18.9375 C1.34314575,18.9375 6.82121026e-13,17.5943542 6.82121026e-13,15.9375 L6.82121026e-13,4.3125 C6.82121026e-13,2.65564575 1.34314575,1.3125 3,1.3125 L16.5,1.3125 C18.1568542,1.3125 19.5,2.65564575 19.5,4.3125 Z" id="Rectangle-245" fill-opacity="0.8" fill="#FFFFFF" opacity="0.400000006"></path>
                <path d="M19.5,3.375 L19.5,15.5625 C19.5,17.2193542 18.1568542,18.5625 16.5,18.5625 L3,18.5625 C1.34314575,18.5625 6.82121026e-13,17.2193542 6.82121026e-13,15.5625 L6.82121026e-13,3.375 C6.82121026e-13,1.71814575 1.34314575,0.375 3,0.375 L16.5,0.375 C18.1568542,0.375 19.5,1.71814575 19.5,3.375 Z" id="Rectangle-245" fill-opacity="0.8" fill="#FFFFFF" opacity="0.5"></path>
                <path d="M3.8458278,9.76996262e-15 L15.6541722,1.08848496e-14 C16.9914503,1.05264168e-14 17.4763797,0.139238417 17.9652686,0.400699056 C18.4541574,0.662159695 18.8378403,1.04584256 19.0993009,1.53473144 C19.3607616,2.02362033 19.5,2.50854969 19.5,3.8458278 L19.5,14.3416722 C19.5,15.6789503 19.3607616,16.1638797 19.0993009,16.6527686 C18.8378403,17.1416574 18.4541574,17.5253403 17.9652686,17.7868009 C17.4763797,18.0482616 16.9914503,18.1875 15.6541722,18.1875 L3.8458278,18.1875 C2.50854969,18.1875 2.02362033,18.0482616 1.53473144,17.7868009 C1.04584256,17.5253403 0.662159695,17.1416574 0.400699056,16.6527686 C0.139238417,16.1638797 0,15.6789503 0,14.3416722 L0,3.8458278 C0,2.50854969 0.139238417,2.02362033 0.400699056,1.53473144 C0.662159695,1.04584256 1.04584256,0.662159695 1.53473144,0.400699056 C2.02362033,0.139238417 2.50854969,9.76996262e-15 3.8458278,9.76996262e-15 Z" id="矩形备份-2" fill="#FFFFFF"></path>
                <path d="M3.8458278,0 L15.6541722,2.26708535e-16 C16.9914503,-1.31724187e-16 17.4763797,0.139238417 17.9652686,0.400699056 C18.4541574,0.662159695 18.8378403,1.04584256 19.0993009,1.53473144 C19.3607616,2.02362033 19.5,2.50854969 19.5,3.8458278 L19.5,5.625 L19.5,5.625 L6.82121026e-13,5.625 L6.82121026e-13,3.8458278 C6.82121026e-13,2.50854969 0.139238417,2.02362033 0.400699056,1.53473144 C0.662159695,1.04584256 1.04584256,0.662159695 1.53473144,0.400699056 C2.02362033,0.139238417 2.50854969,0 3.8458278,0 Z" id="矩形" fill="url(#linearGradient-2)" fill-rule="nonzero"></path>
                <path d="M15.6541722,0 C16.9914503,0 17.4763797,0.139238417 17.9652686,0.400699056 C18.4541574,0.662159695 18.8378403,1.04584256 19.0993009,1.53473144 C19.3607616,2.02362033 19.5,2.50854969 19.5,3.8458278 L19.5,5.625 L6.82121026e-13,5.625 L6.82121026e-13,3.8458278 C6.82121026e-13,2.50854969 0.139238417,2.02362033 0.400699056,1.53473144 C0.662159695,1.04584256 1.04584256,0.662159695 1.53473144,0.400699056 C2.02362033,0.139238417 2.50854969,0 3.8458278,0 L15.6541722,0 Z M3.8458278,0.1875 C2.65490874,0.1875 2.14788562,0.285410682 1.62315623,0.56603903 C1.16694268,0.810024707 0.810024707,1.16694268 0.56603903,1.62315623 C0.292255276,2.13508734 0.192384827,2.63016538 0.1875,3.75989772 L0.1875,5.4375 L19.3125,5.4375 L19.3125,3.8458278 C19.3125,2.68395555 19.2193072,2.17302529 18.9541699,1.66152964 L18.933961,1.62315623 C18.6899753,1.16694268 18.3330573,0.810024707 17.8768438,0.56603903 C17.3521144,0.285410682 16.8450913,0.1875 15.6541722,0.1875 L3.8458278,0.1875 Z" id="矩形" fill="url(#linearGradient-3)" fill-rule="nonzero"></path>
                <g id="MARCH" transform="translate(4.6874, 1.6643)" fill="#FFFFFF" fill-rule="nonzero">
                    <path d="M0,2.27323046 L0.375052589,2.27323046 L0.375052589,1.33948046 C0.375052589,1.12619921 0.338494243,0.799011708 0.31716854,0.585730458 L0.329354656,0.585730458 L0.509099862,1.12924608 L0.898778546,2.08573046 L1.18819879,2.08573046 L1.54741226,1.12924608 L1.73020399,0.585730458 L1.74543664,0.585730458 C1.72106441,0.799011708 1.68755259,1.12619921 1.68755259,1.33948046 L1.68755259,2.27323046 L2.06255259,2.27323046 L2.06255259,0.023230458 L1.56292185,0.023230458 L1.18819879,1.10487108 C1.13945433,1.24502733 1.09984945,1.38002733 1.05110499,1.52323046 L1.03587235,1.52323046 C0.990174413,1.38002733 0.947523008,1.24502733 0.898778546,1.10487108 L0.514915903,0.023230458 L0,0.023230458 L0,2.27323046 Z M3.09222684,1.10487108 C3.15925048,0.870261708 3.22627412,0.645027333 3.28415817,0.398230458 L3.29939081,0.398230458 C3.36336792,0.641980458 3.4242985,0.870261708 3.49436866,1.10487108 L3.5613923,1.35166796 L3.02520321,1.35166796 L3.09222684,1.10487108 Z M2.31231544,2.27323046 L2.76929478,2.27323046 L2.92771428,1.69432421 L3.65888122,1.69432421 L3.81730072,2.27323046 L4.28951271,2.27323046 L3.56443883,0.023230458 L3.03434279,0.023230458 L2.31231544,2.27323046 Z M4.50005259,2.27323046 L4.87505259,2.27323046 L4.87505259,1.39032648 L5.25005259,1.39032648 L5.71312498,2.27323046 L6.21580225,2.27323046 L5.68875275,1.3325805 C5.94770771,1.23203363 6.11831333,1.04698046 6.11831333,0.708777333 C6.11831333,0.190808583 5.74359027,0.023230458 5.27137829,0.023230458 L4.50005259,0.023230458 L4.50005259,2.27323046 Z M4.87505259,1.07135546 L4.87505259,0.398230458 L5.22872689,0.398230458 C5.51814713,0.398230458 5.68063241,0.475863593 5.68063241,0.719613593 C5.68063241,0.960316718 5.51814713,1.07135546 5.22872689,1.07135546 L4.87505259,1.07135546 Z M7.55336543,2.29407819 C7.84583221,2.29407819 8.08548773,2.20010546 8.27132599,1.98377733 L8.03369674,1.70346483 C7.91183558,1.83448046 7.76255566,1.91501213 7.56757781,1.91501213 C7.21113393,1.91501213 6.93755259,1.64030077 6.93755259,1.1497539 C6.93755259,0.66530077 7.23550616,0.386953125 7.5767174,0.386953125 C7.74732302,0.386953125 7.87832376,0.449792958 7.99409186,0.559480458 L8.22867459,0.273074208 C8.0824412,0.120730458 7.85395153,0 7.56757781,0 C6.99787691,0 6.56255259,0.418569751 6.56255259,1.16200725 C6.56255259,1.91458538 6.98366452,2.29407819 7.55336543,2.29407819 Z M8.62505259,2.27323046 L9.00005259,2.27323046 L9.00005259,1.32848785 L9.93777731,1.32848785 L9.93777731,2.27323046 L10.3125526,2.27323046 L10.3125526,0.023230458 L9.93777731,0.023230458 L9.93777731,0.960730458 L9.00005259,0.960730458 L9.00005259,0.023230458 L8.62505259,0.023230458 L8.62505259,2.27323046 Z" id="形状结合"></path>
                </g>
                <path d="M9.1875,15.375 L9.1875,14.2528183 L6.16790061,14.2528183 L8.65670075,11.042104 C8.97367217,10.641197 9.13215788,10.1830175 9.13215788,9.6675656 C9.12495399,9.02325073 8.90703614,8.49169096 8.47840433,8.0728863 C8.05697642,7.65050211 7.50767936,7.43573048 6.83051314,7.42857143 C6.22538589,7.43573048 5.71571026,7.64692258 5.30148624,8.06214772 C4.89086418,8.48811144 4.67114535,9.09852608 4.64232977,9.75 L5.76613753,9.75 C5.80575895,9.3920473 5.93182713,9.04293813 6.14434206,8.84606414 C6.34965309,8.64919015 6.60719237,8.55075316 6.9169599,8.55075316 C7.26634885,8.55791221 7.53649494,8.67066731 7.72739818,8.88901846 C7.91109753,9.10736961 8.0029472,9.3633058 8.0029472,9.65682702 C8.0029472,9.76779236 7.98853941,9.88591675 7.95972383,10.0112002 C7.91650045,10.1436427 7.83545662,10.2868238 7.71659234,10.4407434 L4.6875,14.3172498 L4.6875,15.375 L9.1875,15.375 Z M12.1353975,15.375 L14.8125,8.625 L14.8125,7.50074308 L10.3125,7.5 L10.3125,9.75927228 L11.4430712,9.75927228 L11.4430712,8.62425692 L13.5365212,8.62425692 L10.875,15.375 L12.1353975,15.375 Z" id="27" fill="#000000" fill-rule="nonzero"></path>
            </g>
        </g>
        <g id="Guide/128"></g>
    </g>
</svg>